ffmpeg started on 2026-04-02 at 13:27:02
Report written to "D:\Convert\FFMetrics\reports\psnr_report-6.txt"
Log level: 32
Command line:
ffmpeg -hide_banner -nostdin -r 24/1 -i "F:\\Convert\\files\\Dungeon_ni_Deai_wo_Motomeru_no_wa_Machigatteiru_no_Darou_ka_V_[01]_[AniLibria]_[WEBRip_1080p]_HEVC(71).mkv" -r 24/1 -i "F:\\Convert\\files\\Dungeon_ni_Deai_wo_Motomeru_no_wa_Machigatteiru_no_Darou_ka_V_[01]_[AniLibria]_[WEBRip_1080p].mkv" -lavfi "[0:v]settb=AVTB,setpts=PTS-STARTPTS,format=pix_fmts=yuv420p10le,fps=24/1,scale=1920:1080:flags=lanczos:param0=3:out_range=limited:out_chroma_loc=left,setsar=1/1,setdar=(1920/1080)*(1/1)[main];[1:v]settb=AVTB,setpts=PTS-STARTPTS,format=pix_fmts=yuv420p,fps=24/1,scale=1920:1080:flags=lanczos:param0=3:out_range=limited:out_chroma_loc=left,setsar=1/1,setdar=(1920/1080)*(1/1)[ref];[main][ref]psnr=eof_action=endall:stats_file='D\\:/Convert/FFMetrics/logs/psnr_logfile-6.txt'" -f null -
Input #0, matroska,webm, from 'F:\Convert\files\Dungeon_ni_Deai_wo_Motomeru_no_wa_Machigatteiru_no_Darou_ka_V_[01]_[AniLibria]_[WEBRip_1080p]_HEVC(71).mkv':
  Metadata:
    ENCODER         : Lavf61.7.100
  Duration: 00:23:42.42, start: -0.021000, bitrate: 1086 kb/s
  Stream #0:0(jpn): Video: hevc (Main 10), yuv420p10le(tv, progressive), 1920x1080 [SAR 1:1 DAR 16:9], 24 fps, 24 tbr, 1k tbn (default) (forced)
      Metadata:
        ENCODER         : Lavc61.19.100 libx265
        BPS             : 839301
        DURATION        : 00:23:42.416666666
        NUMBER_OF_FRAMES: 34138
        NUMBER_OF_BYTES : 149229532
        _STATISTICS_WRITING_APP: mkvpropedit v94.0 ('Initiate') 64-bit
        _STATISTICS_WRITING_DATE_UTC: 2026-04-02 09:15:07
        _STATISTICS_TAGS: BPS DURATION NUMBER_OF_FRAMES NUMBER_OF_BYTES
  Stream #0:1(rus): Audio: aac (LC), 48000 Hz, stereo, fltp (default) (forced)
      Metadata:
        title           : AniLibria
        ENCODER         : Lavc61.19.100 aac
        BPS             : 194199
        DURATION        : 00:23:42.399000000
        NUMBER_OF_FRAMES: 66676
        NUMBER_OF_BYTES : 34528622
        _STATISTICS_WRITING_APP: mkvpropedit v94.0 ('Initiate') 64-bit
        _STATISTICS_WRITING_DATE_UTC: 2026-04-02 09:15:07
        _STATISTICS_TAGS: BPS DURATION NUMBER_OF_FRAMES NUMBER_OF_BYTES
  Stream #0:2(rus): Subtitle: ass (ssa) (default) (forced)
      Metadata:
        title           : Надписи
        BPS             : 142
        DURATION        : 00:22:42.440000000
        NUMBER_OF_FRAMES: 88
        NUMBER_OF_BYTES : 24274
        _STATISTICS_WRITING_APP: mkvpropedit v94.0 ('Initiate') 64-bit
        _STATISTICS_WRITING_DATE_UTC: 2026-04-02 09:15:07
        _STATISTICS_TAGS: BPS DURATION NUMBER_OF_FRAMES NUMBER_OF_BYTES
  Stream #0:3(rus): Subtitle: ass (ssa)
      Metadata:
        title           : Полные
        BPS             : 303
        DURATION        : 00:23:34.040000000
        NUMBER_OF_FRAMES: 463
        NUMBER_OF_BYTES : 53572
        _STATISTICS_WRITING_APP: mkvpropedit v94.0 ('Initiate') 64-bit
        _STATISTICS_WRITING_DATE_UTC: 2026-04-02 09:15:07
        _STATISTICS_TAGS: BPS DURATION NUMBER_OF_FRAMES NUMBER_OF_BYTES
  Stream #0:4: Attachment: ttf
      Metadata:
        filename        : 10352_0.TTF
        mimetype        : application/x-truetype-font
  Stream #0:5: Attachment: ttf
      Metadata:
        filename        : ARIAL.TTF
        mimetype        : application/x-truetype-font
  Stream #0:6: Attachment: ttf
      Metadata:
        filename        : ARIAL_4.TTF
        mimetype        : application/x-truetype-font
  Stream #0:7: Attachment: ttf
      Metadata:
        filename        : ARIALBD.TTF
        mimetype        : application/x-truetype-font
  Stream #0:8: Attachment: ttf
      Metadata:
        filename        : ARIALBD_0.TTF
        mimetype        : application/x-truetype-font
  Stream #0:9: Attachment: ttf
      Metadata:
        filename        : ARIALBI.TTF
        mimetype        : application/x-truetype-font
  Stream #0:10: Attachment: ttf
      Metadata:
        filename        : ARIALBI_0.TTF
        mimetype        : application/x-truetype-font
  Stream #0:11: Attachment: ttf
      Metadata:
        filename        : ARIALI.TTF
        mimetype        : application/x-truetype-font
  Stream #0:12: Attachment: ttf
      Metadata:
        filename        : ARIALI_0.TTF
        mimetype        : application/x-truetype-font
  Stream #0:13: Attachment: ttf
      Metadata:
        filename        : ARIALN.TTF
        mimetype        : application/x-truetype-font
  Stream #0:14: Attachment: ttf
      Metadata:
        filename        : ARIALN_0.TTF
        mimetype        : application/x-truetype-font
  Stream #0:15: Attachment: ttf
      Metadata:
        filename        : ARIALNB.TTF
        mimetype        : application/x-truetype-font
  Stream #0:16: Attachment: ttf
      Metadata:
        filename        : ARIALNBI.TTF
        mimetype        : application/x-truetype-font
  Stream #0:17: Attachment: ttf
      Metadata:
        filename        : ARIALNI.TTF
        mimetype        : application/x-truetype-font
  Stream #0:18: Attachment: ttf
      Metadata:
        filename        : ARIBLK.TTF
        mimetype        : application/x-truetype-font
  Stream #0:19: Attachment: ttf
      Metadata:
        filename        : ARIBLK_0.TTF
        mimetype        : application/x-truetype-font
  Stream #0:20: Attachment: ttf
      Metadata:
        filename        : ARLEKINO.TTF
        mimetype        : application/x-truetype-font
  Stream #0:21: Attachment: ttf
      Metadata:
        filename        : BOOKOS.TTF
        mimetype        : application/x-truetype-font
  Stream #0:22: Attachment: ttf
      Metadata:
        filename        : BOOKOS_0.TTF
        mimetype        : application/x-truetype-font
  Stream #0:23: Attachment: ttf
      Metadata:
        filename        : BOOKOSB.TTF
        mimetype        : application/x-truetype-font
  Stream #0:24: Attachment: ttf
      Metadata:
        filename        : BOOKOSBI.TTF
        mimetype        : application/x-truetype-font
  Stream #0:25: Attachment: ttf
      Metadata:
        filename        : BOOKOSI.TTF
        mimetype        : application/x-truetype-font
  Stream #0:26: Attachment: ttf
      Metadata:
        filename        : Roboto-Medium.ttf
        mimetype        : application/x-truetype-font
Input #1, matroska,webm, from 'F:\Convert\files\Dungeon_ni_Deai_wo_Motomeru_no_wa_Machigatteiru_no_Darou_ka_V_[01]_[AniLibria]_[WEBRip_1080p].mkv':
  Metadata:
    encoder         : libebml v1.3.10 + libmatroska v1.5.2
    creation_time   : 2024-10-04T13:48:57.000000Z
  Duration: 00:23:42.42, start: 0.000000, bitrate: 5386 kb/s
  Stream #1:0(jpn): Video: h264 (High), yuv420p(progressive), 1920x1080 [SAR 1:1 DAR 16:9], 24 fps, 24 tbr, 1k tbn (default) (forced)
      Metadata:
        BPS-eng         : 5014079
        DURATION-eng    : 00:23:42.417000000
        NUMBER_OF_FRAMES-eng: 34138
        NUMBER_OF_BYTES-eng: 891513907
        _STATISTICS_WRITING_APP-eng: mkvmerge v45.0.0 ('Heaven in Pennies') 64-bit
        _STATISTICS_WRITING_DATE_UTC-eng: 2024-10-04 13:48:57
        _STATISTICS_TAGS-eng: BPS DURATION NUMBER_OF_FRAMES NUMBER_OF_BYTES
  Stream #1:1(rus): Audio: aac (LC), 48000 Hz, stereo, fltp (default) (forced)
      Metadata:
        title           : AniLibria
        BPS-eng         : 192088
        DURATION-eng    : 00:23:42.400000000
        NUMBER_OF_FRAMES-eng: 66675
        NUMBER_OF_BYTES-eng: 34153247
        _STATISTICS_WRITING_APP-eng: mkvmerge v45.0.0 ('Heaven in Pennies') 64-bit
        _STATISTICS_WRITING_DATE_UTC-eng: 2024-10-04 13:48:57
        _STATISTICS_TAGS-eng: BPS DURATION NUMBER_OF_FRAMES NUMBER_OF_BYTES
  Stream #1:2(jpn): Audio: aac (LC), 48000 Hz, stereo, fltp
      Metadata:
        title           : Original
        BPS-eng         : 128824
        DURATION-eng    : 00:23:42.421000000
        NUMBER_OF_FRAMES-eng: 66676
        NUMBER_OF_BYTES-eng: 22905301
        _STATISTICS_WRITING_APP-eng: mkvmerge v45.0.0 ('Heaven in Pennies') 64-bit
        _STATISTICS_WRITING_DATE_UTC-eng: 2024-10-04 13:48:57
        _STATISTICS_TAGS-eng: BPS DURATION NUMBER_OF_FRAMES NUMBER_OF_BYTES
  Stream #1:3(rus): Subtitle: ass (ssa) (default) (forced)
      Metadata:
        title           : Надписи
        BPS-eng         : 142
        DURATION-eng    : 00:22:42.440000000
        NUMBER_OF_FRAMES-eng: 88
        NUMBER_OF_BYTES-eng: 24274
        _STATISTICS_WRITING_APP-eng: mkvmerge v45.0.0 ('Heaven in Pennies') 64-bit
        _STATISTICS_WRITING_DATE_UTC-eng: 2024-10-04 13:48:57
        _STATISTICS_TAGS-eng: BPS DURATION NUMBER_OF_FRAMES NUMBER_OF_BYTES
  Stream #1:4(rus): Subtitle: ass (ssa)
      Metadata:
        title           : Полные
        BPS-eng         : 303
        DURATION-eng    : 00:23:34.040000000
        NUMBER_OF_FRAMES-eng: 463
        NUMBER_OF_BYTES-eng: 53572
        _STATISTICS_WRITING_APP-eng: mkvmerge v45.0.0 ('Heaven in Pennies') 64-bit
        _STATISTICS_WRITING_DATE_UTC-eng: 2024-10-04 13:48:57
        _STATISTICS_TAGS-eng: BPS DURATION NUMBER_OF_FRAMES NUMBER_OF_BYTES
  Stream #1:5: Attachment: ttf
      Metadata:
        filename        : 10352_0.TTF
        mimetype        : application/x-truetype-font
  Stream #1:6: Attachment: ttf
      Metadata:
        filename        : ARIAL.TTF
        mimetype        : application/x-truetype-font
  Stream #1:7: Attachment: ttf
      Metadata:
        filename        : ARIAL_4.TTF
        mimetype        : application/x-truetype-font
  Stream #1:8: Attachment: ttf
      Metadata:
        filename        : ARIALBD.TTF
        mimetype        : application/x-truetype-font
  Stream #1:9: Attachment: ttf
      Metadata:
        filename        : ARIALBD_0.TTF
        mimetype        : application/x-truetype-font
  Stream #1:10: Attachment: ttf
      Metadata:
        filename        : ARIALBI.TTF
        mimetype        : application/x-truetype-font
  Stream #1:11: Attachment: ttf
      Metadata:
        filename        : ARIALBI_0.TTF
        mimetype        : application/x-truetype-font
  Stream #1:12: Attachment: ttf
      Metadata:
        filename        : ARIALI.TTF
        mimetype        : application/x-truetype-font
  Stream #1:13: Attachment: ttf
      Metadata:
        filename        : ARIALI_0.TTF
        mimetype        : application/x-truetype-font
  Stream #1:14: Attachment: ttf
      Metadata:
        filename        : ARIALN.TTF
        mimetype        : application/x-truetype-font
  Stream #1:15: Attachment: ttf
      Metadata:
        filename        : ARIALN_0.TTF
        mimetype        : application/x-truetype-font
  Stream #1:16: Attachment: ttf
      Metadata:
        filename        : ARIALNB.TTF
        mimetype        : application/x-truetype-font
  Stream #1:17: Attachment: ttf
      Metadata:
        filename        : ARIALNBI.TTF
        mimetype        : application/x-truetype-font
  Stream #1:18: Attachment: ttf
      Metadata:
        filename        : ARIALNI.TTF
        mimetype        : application/x-truetype-font
  Stream #1:19: Attachment: ttf
      Metadata:
        filename        : ARIBLK.TTF
        mimetype        : application/x-truetype-font
  Stream #1:20: Attachment: ttf
      Metadata:
        filename        : ARIBLK_0.TTF
        mimetype        : application/x-truetype-font
  Stream #1:21: Attachment: ttf
      Metadata:
        filename        : ARLEKINO.TTF
        mimetype        : application/x-truetype-font
  Stream #1:22: Attachment: ttf
      Metadata:
        filename        : BOOKOS.TTF
        mimetype        : application/x-truetype-font
  Stream #1:23: Attachment: ttf
      Metadata:
        filename        : BOOKOS_0.TTF
        mimetype        : application/x-truetype-font
  Stream #1:24: Attachment: ttf
      Metadata:
        filename        : BOOKOSB.TTF
        mimetype        : application/x-truetype-font
  Stream #1:25: Attachment: ttf
      Metadata:
        filename        : BOOKOSBI.TTF
        mimetype        : application/x-truetype-font
  Stream #1:26: Attachment: ttf
      Metadata:
        filename        : BOOKOSI.TTF
        mimetype        : application/x-truetype-font
  Stream #1:27: Attachment: ttf
      Metadata:
        filename        : Roboto-Medium.ttf
        mimetype        : application/x-truetype-font
Stream mapping:
  Stream #0:0 (hevc) -> settb:default
  Stream #1:0 (h264) -> settb:default
  psnr:default -> Stream #0:0 (wrapped_avframe)
  Stream #0:1 -> #0:1 (aac (native) -> pcm_s16le (native))
Output #0, null, to 'pipe:':
  Metadata:
    encoder         : Lavf61.7.100
  Stream #0:0: Video: wrapped_avframe, yuv420p10le(tv, progressive), 1920x1080 [SAR 1:1 DAR 16:9], q=2-31, 200 kb/s, 24 fps, 24 tbn
      Metadata:
        encoder         : Lavc61.19.100 wrapped_avframe
  Stream #0:1(rus): Audio: pcm_s16le, 48000 Hz, stereo, s16, 1536 kb/s (default) (forced)
      Metadata:
        title           : AniLibria
        _STATISTICS_TAGS: BPS DURATION NUMBER_OF_FRAMES NUMBER_OF_BYTES
        BPS             : 194199
        DURATION        : 00:23:42.399000000
        NUMBER_OF_FRAMES: 66676
        NUMBER_OF_BYTES : 34528622
        _STATISTICS_WRITING_APP: mkvpropedit v94.0 ('Initiate') 64-bit
        _STATISTICS_WRITING_DATE_UTC: 2026-04-02 09:15:07
        encoder         : Lavc61.19.100 pcm_s16le
frame=  162 fps=0.0 q=-0.0 size=N/A time=00:00:06.75 bitrate=N/A speed=13.1x    frame=  363 fps=354 q=-0.0 size=N/A time=00:00:15.12 bitrate=N/A speed=14.7x    frame=  553 fps=356 q=-0.0 size=N/A time=00:00:23.04 bitrate=N/A speed=14.8x    frame=  759 fps=368 q=-0.0 size=N/A time=00:00:31.62 bitrate=N/A speed=15.3x    frame=  974 fps=376 q=-0.0 size=N/A time=00:00:40.58 bitrate=N/A speed=15.7x    frame= 1197 fps=386 q=-0.0 size=N/A time=00:00:49.87 bitrate=N/A speed=16.1x    frame= 1401 fps=388 q=-0.0 size=N/A time=00:00:58.37 bitrate=N/A speed=16.2x    frame= 1590 fps=384 q=-0.0 size=N/A time=00:01:06.25 bitrate=N/A speed=  16x    frame= 1749 fps=375 q=-0.0 size=N/A time=00:01:12.87 bitrate=N/A speed=15.6x    frame= 1930 fps=373 q=-0.0 size=N/A time=00:01:20.41 bitrate=N/A speed=15.5x    frame= 2112 fps=372 q=-0.0 size=N/A time=00:01:28.00 bitrate=N/A speed=15.5x    frame= 2294 fps=369 q=-0.0 size=N/A time=00:01:35.58 bitrate=N/A speed=15.4x    frame= 2479 fps=369 q=-0.0 size=N/A time=00:01:43.29 bitrate=N/A speed=15.4x    frame= 2644 fps=366 q=-0.0 size=N/A time=00:01:50.16 bitrate=N/A speed=15.2x    frame= 2799 fps=361 q=-0.0 size=N/A time=00:01:56.62 bitrate=N/A speed=  15x    frame= 2938 fps=355 q=-0.0 size=N/A time=00:02:02.41 bitrate=N/A speed=14.8x    frame= 3112 fps=355 q=-0.0 size=N/A time=00:02:09.66 bitrate=N/A speed=14.8x    frame= 3291 fps=354 q=-0.0 size=N/A time=00:02:17.12 bitrate=N/A speed=14.7x    frame= 3497 fps=356 q=-0.0 size=N/A time=00:02:25.70 bitrate=N/A speed=14.8x    frame= 3723 fps=361 q=-0.0 size=N/A time=00:02:35.12 bitrate=N/A speed=  15x    frame= 3944 fps=363 q=-0.0 size=N/A time=00:02:44.33 bitrate=N/A speed=15.1x    frame= 4163 fps=366 q=-0.0 size=N/A time=00:02:53.45 bitrate=N/A speed=15.3x    frame= 4376 fps=369 q=-0.0 size=N/A time=00:03:02.33 bitrate=N/A speed=15.4x    frame= 4602 fps=371 q=-0.0 size=N/A time=00:03:11.75 bitrate=N/A speed=15.5x    frame= 4840 fps=375 q=-0.0 size=N/A time=00:03:21.66 bitrate=N/A speed=15.6x    frame= 5064 fps=377 q=-0.0 size=N/A time=00:03:31.00 bitrate=N/A speed=15.7x    frame= 5268 fps=378 q=-0.0 size=N/A time=00:03:39.50 bitrate=N/A speed=15.7x    frame= 5484 fps=379 q=-0.0 size=N/A time=00:03:48.50 bitrate=N/A speed=15.8x    frame= 5692 fps=380 q=-0.0 size=N/A time=00:03:57.16 bitrate=N/A speed=15.8x    frame= 5901 fps=381 q=-0.0 size=N/A time=00:04:05.87 bitrate=N/A speed=15.9x    frame= 6121 fps=382 q=-0.0 size=N/A time=00:04:15.04 bitrate=N/A speed=15.9x    frame= 6330 fps=383 q=-0.0 size=N/A time=00:04:23.75 bitrate=N/A speed=  16x    frame= 6539 fps=384 q=-0.0 size=N/A time=00:04:32.45 bitrate=N/A speed=  16x    frame= 6755 fps=385 q=-0.0 size=N/A time=00:04:41.45 bitrate=N/A speed=  16x    frame= 6952 fps=385 q=-0.0 size=N/A time=00:04:49.66 bitrate=N/A speed=  16x    frame= 7181 fps=387 q=-0.0 size=N/A time=00:04:59.20 bitrate=N/A speed=16.1x    frame= 7407 fps=388 q=-0.0 size=N/A time=00:05:08.62 bitrate=N/A speed=16.2x    frame= 7638 fps=389 q=-0.0 size=N/A time=00:05:18.25 bitrate=N/A speed=16.2x    frame= 7869 fps=391 q=-0.0 size=N/A time=00:05:27.87 bitrate=N/A speed=16.3x    frame= 8099 fps=392 q=-0.0 size=N/A time=00:05:37.45 bitrate=N/A speed=16.4x    frame= 8312 fps=393 q=-0.0 size=N/A time=00:05:46.33 bitrate=N/A speed=16.4x    frame= 8536 fps=394 q=-0.0 size=N/A time=00:05:55.66 bitrate=N/A speed=16.4x    frame= 8755 fps=395 q=-0.0 size=N/A time=00:06:04.79 bitrate=N/A speed=16.4x    frame= 8999 fps=396 q=-0.0 size=N/A time=00:06:14.95 bitrate=N/A speed=16.5x    frame= 9215 fps=397 q=-0.0 size=N/A time=00:06:23.95 bitrate=N/A speed=16.5x    frame= 9439 fps=398 q=-0.0 size=N/A time=00:06:33.29 bitrate=N/A speed=16.6x    frame= 9659 fps=398 q=-0.0 size=N/A time=00:06:42.45 bitrate=N/A speed=16.6x    frame= 9881 fps=399 q=-0.0 size=N/A time=00:06:51.70 bitrate=N/A speed=16.6x    frame=10119 fps=400 q=-0.0 size=N/A time=00:07:01.62 bitrate=N/A speed=16.7x    frame=10348 fps=401 q=-0.0 size=N/A time=00:07:11.16 bitrate=N/A speed=16.7x    frame=10560 fps=401 q=-0.0 size=N/A time=00:07:20.00 bitrate=N/A speed=16.7x    frame=10789 fps=402 q=-0.0 size=N/A time=00:07:29.54 bitrate=N/A speed=16.8x    frame=10970 fps=401 q=-0.0 size=N/A time=00:07:37.08 bitrate=N/A speed=16.7x    frame=11191 fps=402 q=-0.0 size=N/A time=00:07:46.29 bitrate=N/A speed=16.7x    frame=11425 fps=403 q=-0.0 size=N/A time=00:07:56.04 bitrate=N/A speed=16.8x    frame=11632 fps=403 q=-0.0 size=N/A time=00:08:04.66 bitrate=N/A speed=16.8x    frame=11868 fps=404 q=-0.0 size=N/A time=00:08:14.50 bitrate=N/A speed=16.8x    frame=12093 fps=404 q=-0.0 size=N/A time=00:08:23.87 bitrate=N/A speed=16.8x    frame=12329 fps=405 q=-0.0 size=N/A time=00:08:33.70 bitrate=N/A speed=16.9x    frame=12567 fps=406 q=-0.0 size=N/A time=00:08:43.62 bitrate=N/A speed=16.9x    frame=12777 fps=406 q=-0.0 size=N/A time=00:08:52.37 bitrate=N/A speed=16.9x    frame=13024 fps=407 q=-0.0 size=N/A time=00:09:02.66 bitrate=N/A speed=  17x    frame=13257 fps=408 q=-0.0 size=N/A time=00:09:12.37 bitrate=N/A speed=  17x    frame=13475 fps=408 q=-0.0 size=N/A time=00:09:21.45 bitrate=N/A speed=  17x    frame=13676 fps=408 q=-0.0 size=N/A time=00:09:29.83 bitrate=N/A speed=  17x    frame=13893 fps=408 q=-0.0 size=N/A time=00:09:38.87 bitrate=N/A speed=  17x    frame=14123 fps=408 q=-0.0 size=N/A time=00:09:48.45 bitrate=N/A speed=  17x    frame=14348 fps=409 q=-0.0 size=N/A time=00:09:57.83 bitrate=N/A speed=  17x    frame=14584 fps=409 q=-0.0 size=N/A time=00:10:07.66 bitrate=N/A speed=17.1x    frame=14821 fps=410 q=-0.0 size=N/A time=00:10:17.54 bitrate=N/A speed=17.1x    frame=15057 fps=411 q=-0.0 size=N/A time=00:10:27.37 bitrate=N/A speed=17.1x    frame=15291 fps=411 q=-0.0 size=N/A time=00:10:37.12 bitrate=N/A speed=17.1x    frame=15504 fps=411 q=-0.0 size=N/A time=00:10:46.00 bitrate=N/A speed=17.1x    frame=15738 fps=412 q=-0.0 size=N/A time=00:10:55.75 bitrate=N/A speed=17.2x    frame=15967 fps=412 q=-0.0 size=N/A time=00:11:05.29 bitrate=N/A speed=17.2x    frame=16206 fps=413 q=-0.0 size=N/A time=00:11:15.25 bitrate=N/A speed=17.2x    frame=16421 fps=413 q=-0.0 size=N/A time=00:11:24.20 bitrate=N/A speed=17.2x    frame=16648 fps=413 q=-0.0 size=N/A time=00:11:33.66 bitrate=N/A speed=17.2x    frame=16886 fps=414 q=-0.0 size=N/A time=00:11:43.58 bitrate=N/A speed=17.2x    frame=17104 fps=414 q=-0.0 size=N/A time=00:11:52.66 bitrate=N/A speed=17.2x    frame=17338 fps=415 q=-0.0 size=N/A time=00:12:02.41 bitrate=N/A speed=17.3x    frame=17573 fps=415 q=-0.0 size=N/A time=00:12:12.20 bitrate=N/A speed=17.3x    frame=17808 fps=415 q=-0.0 size=N/A time=00:12:22.00 bitrate=N/A speed=17.3x    frame=18042 fps=416 q=-0.0 size=N/A time=00:12:31.75 bitrate=N/A speed=17.3x    frame=18265 fps=416 q=-0.0 size=N/A time=00:12:41.04 bitrate=N/A speed=17.3x    frame=18464 fps=416 q=-0.0 size=N/A time=00:12:49.33 bitrate=N/A speed=17.3x    frame=18679 fps=416 q=-0.0 size=N/A time=00:12:58.29 bitrate=N/A speed=17.3x    frame=18909 fps=416 q=-0.0 size=N/A time=00:13:07.87 bitrate=N/A speed=17.3x    frame=19127 fps=416 q=-0.0 size=N/A time=00:13:16.95 bitrate=N/A speed=17.3x    frame=19366 fps=417 q=-0.0 size=N/A time=00:13:26.91 bitrate=N/A speed=17.4x    frame=19588 fps=417 q=-0.0 size=N/A time=00:13:36.16 bitrate=N/A speed=17.4x    frame=19821 fps=417 q=-0.0 size=N/A time=00:13:45.87 bitrate=N/A speed=17.4x    frame=20048 fps=417 q=-0.0 size=N/A time=00:13:55.33 bitrate=N/A speed=17.4x    frame=20277 fps=418 q=-0.0 size=N/A time=00:14:04.87 bitrate=N/A speed=17.4x    frame=20507 fps=418 q=-0.0 size=N/A time=00:14:14.45 bitrate=N/A speed=17.4x    frame=20733 fps=418 q=-0.0 size=N/A time=00:14:23.87 bitrate=N/A speed=17.4x    frame=20934 fps=418 q=-0.0 size=N/A time=00:14:32.25 bitrate=N/A speed=17.4x    frame=21165 fps=418 q=-0.0 size=N/A time=00:14:41.87 bitrate=N/A speed=17.4x    frame=21381 fps=418 q=-0.0 size=N/A time=00:14:50.87 bitrate=N/A speed=17.4x    frame=21597 fps=418 q=-0.0 size=N/A time=00:14:59.87 bitrate=N/A speed=17.4x    frame=21814 fps=418 q=-0.0 size=N/A time=00:15:08.91 bitrate=N/A speed=17.4x    frame=22041 fps=418 q=-0.0 size=N/A time=00:15:18.37 bitrate=N/A speed=17.4x    frame=22255 fps=418 q=-0.0 size=N/A time=00:15:27.29 bitrate=N/A speed=17.4x    frame=22465 fps=418 q=-0.0 size=N/A time=00:15:36.04 bitrate=N/A speed=17.4x    frame=22688 fps=418 q=-0.0 size=N/A time=00:15:45.33 bitrate=N/A speed=17.4x    frame=22912 fps=419 q=-0.0 size=N/A time=00:15:54.66 bitrate=N/A speed=17.4x    frame=23139 fps=419 q=-0.0 size=N/A time=00:16:04.12 bitrate=N/A speed=17.4x    frame=23370 fps=419 q=-0.0 size=N/A time=00:16:13.75 bitrate=N/A speed=17.5x    frame=23573 fps=419 q=-0.0 size=N/A time=00:16:22.20 bitrate=N/A speed=17.5x    frame=23805 fps=419 q=-0.0 size=N/A time=00:16:31.87 bitrate=N/A speed=17.5x    frame=24047 fps=420 q=-0.0 size=N/A time=00:16:41.95 bitrate=N/A speed=17.5x    frame=24260 fps=419 q=-0.0 size=N/A time=00:16:50.83 bitrate=N/A speed=17.5x    frame=24485 fps=420 q=-0.0 size=N/A time=00:17:00.20 bitrate=N/A speed=17.5x    frame=24717 fps=420 q=-0.0 size=N/A time=00:17:09.87 bitrate=N/A speed=17.5x    frame=24941 fps=420 q=-0.0 size=N/A time=00:17:19.20 bitrate=N/A speed=17.5x    frame=25160 fps=420 q=-0.0 size=N/A time=00:17:28.33 bitrate=N/A speed=17.5x    frame=25398 fps=420 q=-0.0 size=N/A time=00:17:38.25 bitrate=N/A speed=17.5x    frame=25627 fps=421 q=-0.0 size=N/A time=00:17:47.79 bitrate=N/A speed=17.5x    frame=25847 fps=421 q=-0.0 size=N/A time=00:17:56.95 bitrate=N/A speed=17.5x    frame=26076 fps=421 q=-0.0 size=N/A time=00:18:06.50 bitrate=N/A speed=17.5x    frame=26300 fps=421 q=-0.0 size=N/A time=00:18:15.83 bitrate=N/A speed=17.5x    frame=26519 fps=421 q=-0.0 size=N/A time=00:18:24.95 bitrate=N/A speed=17.5x    frame=26744 fps=421 q=-0.0 size=N/A time=00:18:34.33 bitrate=N/A speed=17.5x    frame=26931 fps=421 q=-0.0 size=N/A time=00:18:42.12 bitrate=N/A speed=17.5x    frame=27140 fps=421 q=-0.0 size=N/A time=00:18:50.83 bitrate=N/A speed=17.5x    frame=27355 fps=421 q=-0.0 size=N/A time=00:18:59.79 bitrate=N/A speed=17.5x    frame=27587 fps=421 q=-0.0 size=N/A time=00:19:09.45 bitrate=N/A speed=17.5x    frame=27797 fps=421 q=-0.0 size=N/A time=00:19:18.20 bitrate=N/A speed=17.5x    frame=27920 fps=419 q=-0.0 size=N/A time=00:19:23.33 bitrate=N/A speed=17.5x    frame=28110 fps=419 q=-0.0 size=N/A time=00:19:31.25 bitrate=N/A speed=17.5x    frame=28275 fps=418 q=-0.0 size=N/A time=00:19:38.12 bitrate=N/A speed=17.4x    frame=28449 fps=418 q=-0.0 size=N/A time=00:19:45.37 bitrate=N/A speed=17.4x    frame=28623 fps=417 q=-0.0 size=N/A time=00:19:52.62 bitrate=N/A speed=17.4x    frame=28825 fps=417 q=-0.0 size=N/A time=00:20:01.04 bitrate=N/A speed=17.4x    frame=29024 fps=416 q=-0.0 size=N/A time=00:20:09.33 bitrate=N/A speed=17.4x    frame=29238 fps=416 q=-0.0 size=N/A time=00:20:18.25 bitrate=N/A speed=17.4x    frame=29453 fps=416 q=-0.0 size=N/A time=00:20:27.20 bitrate=N/A speed=17.4x    frame=29622 fps=416 q=-0.0 size=N/A time=00:20:34.25 bitrate=N/A speed=17.3x    frame=29761 fps=415 q=-0.0 size=N/A time=00:20:40.04 bitrate=N/A speed=17.3x    frame=29929 fps=414 q=-0.0 size=N/A time=00:20:47.04 bitrate=N/A speed=17.3x    frame=30091 fps=413 q=-0.0 size=N/A time=00:20:53.79 bitrate=N/A speed=17.2x    frame=30264 fps=413 q=-0.0 size=N/A time=00:21:01.00 bitrate=N/A speed=17.2x    frame=30427 fps=412 q=-0.0 size=N/A time=00:21:07.79 bitrate=N/A speed=17.2x    frame=30600 fps=412 q=-0.0 size=N/A time=00:21:15.00 bitrate=N/A speed=17.2x    frame=30764 fps=411 q=-0.0 size=N/A time=00:21:21.83 bitrate=N/A speed=17.1x    frame=30940 fps=411 q=-0.0 size=N/A time=00:21:29.16 bitrate=N/A speed=17.1x    frame=31098 fps=410 q=-0.0 size=N/A time=00:21:35.75 bitrate=N/A speed=17.1x    frame=31278 fps=409 q=-0.0 size=N/A time=00:21:43.25 bitrate=N/A speed=17.1x    frame=31456 fps=409 q=-0.0 size=N/A time=00:21:50.66 bitrate=N/A speed=  17x    frame=31676 fps=409 q=-0.0 size=N/A time=00:21:59.83 bitrate=N/A speed=  17x    frame=31890 fps=409 q=-0.0 size=N/A time=00:22:08.75 bitrate=N/A speed=  17x    frame=32111 fps=409 q=-0.0 size=N/A time=00:22:17.95 bitrate=N/A speed=17.1x    frame=32349 fps=410 q=-0.0 size=N/A time=00:22:27.87 bitrate=N/A speed=17.1x    frame=32585 fps=410 q=-0.0 size=N/A time=00:22:37.70 bitrate=N/A speed=17.1x    frame=32823 fps=410 q=-0.0 size=N/A time=00:22:47.62 bitrate=N/A speed=17.1x    frame=33069 fps=411 q=-0.0 size=N/A time=00:22:57.87 bitrate=N/A speed=17.1x    frame=33306 fps=411 q=-0.0 size=N/A time=00:23:07.79 bitrate=N/A speed=17.1x    frame=33541 fps=411 q=-0.0 size=N/A time=00:23:17.54 bitrate=N/A speed=17.1x    frame=33781 fps=412 q=-0.0 size=N/A time=00:23:27.54 bitrate=N/A speed=17.2x    frame=34004 fps=412 q=-0.0 size=N/A time=00:23:36.83 bitrate=N/A speed=17.2x    [Parsed_psnr_14 @ 0000023d00ed0280] PSNR y:48.726087 u:51.171095 v:51.601146 average:49.444414 min:41.536264 max:inf
[out#0/null @ 0000023d7ca4cfc0] video:14669KiB audio:266704KiB subtitle:0KiB other streams:0KiB global headers:0KiB muxing overhead: unknown
frame=34138 fps=412 q=-0.0 Lsize=N/A time=00:23:42.41 bitrate=N/A speed=17.1x    
